<?xml version="1.0" encoding="UTF-8" standalone="no"?>
<!-- Created with Inkscape (http://www.inkscape.org/) -->

<svg
   width="213.07675mm"
   height="78.071518mm"
   viewBox="0 0 213.07675 78.071518"
   version="1.1"
   id="svg1"
   inkscape:version="1.4 (e7c3feb100, 2024-10-09)"
   sodipodi:docname="openshow-logo.svg"
   xmlns:inkscape="http://www.inkscape.org/namespaces/inkscape"
   xmlns:sodipodi="http://sodipodi.sourceforge.net/DTD/sodipodi-0.dtd"
   xmlns="http://www.w3.org/2000/svg"
   xmlns:svg="http://www.w3.org/2000/svg">
  <sodipodi:namedview
     id="namedview1"
     pagecolor="#ffffff"
     bordercolor="#000000"
     borderopacity="0.25"
     inkscape:showpageshadow="2"
     inkscape:pageopacity="0.0"
     inkscape:pagecheckerboard="0"
     inkscape:deskcolor="#d1d1d1"
     inkscape:document-units="mm"
     inkscape:zoom="1.1616687"
     inkscape:cx="406.74248"
     inkscape:cy="117.07297"
     inkscape:window-width="1805"
     inkscape:window-height="1131"
     inkscape:window-x="0"
     inkscape:window-y="0"
     inkscape:window-maximized="1"
     inkscape:current-layer="layer1" />
  <defs
     id="defs1">
    <rect
       x="-0.7607224"
       y="240.38828"
       width="758.44019"
       height="211.48082"
       id="rect7" />
    <rect
       x="269.66376"
       y="159.11836"
       width="65.741005"
       height="84.165237"
       id="rect6" />
  </defs>
  <g
     inkscape:label="Layer 1"
     inkscape:groupmode="layer"
     id="layer1"
     transform="translate(1.8539268,-31.695902)">
    <path
       style="fill:none;stroke:#1a1a1a;stroke-width:2.61937;stroke-linecap:round"
       d="m 66.878607,34.255283 h 39.015583 c 1.81976,0 3.28476,1.465 3.28476,3.284753 v 27.216528 c 0,1.819753 -1.465,3.284753 -3.28476,3.284753 H 34.098868 c -1.819753,0 -3.284752,-1.465 -3.284752,-3.284753 V 37.540036 c 0,-1.819753 1.464999,-3.284753 3.284752,-3.284753 h 4.293334"
       id="rect1"
       sodipodi:nodetypes="cssssssssc" />
    <path
       style="fill:none;stroke:#1a1a1a;stroke-width:2.61937;stroke-linecap:butt;stroke-linejoin:round;stroke-dasharray:none"
       d="m 41.397456,68.234004 v 4.763508 h 10.556959 v -4.892249"
       id="path2" />
    <path
       style="fill:none;stroke:#1a1a1a;stroke-width:2.61937;stroke-linecap:butt;stroke-linejoin:round;stroke-dasharray:none"
       d="m 88.038656,68.233741 v 4.763508 H 98.595559 V 68.105"
       id="path2-5" />
    <circle
       style="fill:none;stroke:#1a1a1a;stroke-width:2.61937;stroke-linecap:butt;stroke-linejoin:round;stroke-dasharray:none"
       id="path3"
       cx="52.698578"
       cy="48.376629"
       r="15.371042" />
    <circle
       style="fill:#1a1a1a;stroke:none;stroke-width:2.79633;stroke-linecap:round;stroke-linejoin:round;stroke-dasharray:none"
       id="path4"
       cx="52.698578"
       cy="48.187748"
       r="11.423446" />
    <circle
       style="fill:#ffffff;stroke:none;stroke-width:1.78106;stroke-linecap:round;stroke-linejoin:round;stroke-dasharray:none"
       id="path6"
       cx="47.880299"
       cy="41.835041"
       r="1.5391251" />
    <path
       d="m 40.490234,258.73483 c -8.28125,0 -15.359375,2.9375 -21.234375,8.8125 -5.84375,5.84375 -8.765625,12.90625 -8.765625,21.1875 0,8.28125 2.921875,15.35937 8.765625,21.23437 5.875,5.84375 12.953125,8.76563 21.234375,8.76563 8.28125,0 15.34375,-2.92188 21.1875,-8.76563 5.875,-5.875 8.8125,-12.95312 8.8125,-21.23437 0,-8.28125 -2.9375,-15.34375 -8.8125,-21.1875 -5.84375,-5.875 -12.90625,-8.8125 -21.1875,-8.8125 z m 37.5,30 c 0,10.34375 -3.671875,19.1875 -11.015625,26.53125 -7.3125,7.3125 -16.140625,10.96875 -26.484375,10.96875 -10.34375,0 -19.1875,-3.65625 -26.53125,-10.96875 -7.3124997,-7.34375 -10.9687496,-16.1875 -10.9687496,-26.53125 0,-10.34375 3.6562499,-19.17188 10.9687496,-26.48438 7.34375,-7.34375 16.1875,-11.01562 26.53125,-11.01562 10.34375,0 19.171875,3.67187 26.484375,11.01562 7.34375,7.3125 11.015625,16.14063 11.015625,26.48438 z m 15,11.25 c 0,5.1875 1.828125,9.60937 5.484375,13.26562 3.656251,3.65625 8.078121,5.48438 13.265621,5.48438 5.1875,0 9.60938,-1.82813 13.26563,-5.48438 3.65625,-3.65625 5.48437,-8.07812 5.48437,-13.26562 0,-5.1875 -1.82812,-9.60938 -5.48437,-13.26563 -3.65625,-3.65625 -8.07813,-5.48437 -13.26563,-5.48437 -5.1875,0 -9.60937,1.82812 -13.265621,5.48437 -3.65625,3.65625 -5.484375,8.07813 -5.484375,13.26563 z m 0,45 c 0,1.03125 -0.375,1.90625 -1.125,2.625 -0.71875,0.75 -1.59375,1.125 -2.625,1.125 -1.03125,0 -1.921875,-0.375 -2.671875,-1.125 -0.71875,-0.71875 -1.078125,-1.59375 -1.078125,-2.625 v -45 c 0,-7.25 2.5625,-13.4375 7.6875,-18.5625 5.124997,-5.125 11.312496,-7.6875 18.562496,-7.6875 7.25,0 13.4375,2.5625 18.5625,7.6875 5.125,5.125 7.6875,11.3125 7.6875,18.5625 0,7.25 -2.5625,13.4375 -7.6875,18.5625 -5.125,5.125 -11.3125,7.6875 -18.5625,7.6875 -7.25,0 -13.437499,-2.5625 -18.562496,-7.6875 -0.0625,-0.0625 -0.125,-0.12497 -0.1875,-0.1875 z m 97.171876,-48.75 c -0.6875,-3.59375 -2.40625,-6.76563 -5.15625,-9.51563 -3.65625,-3.65625 -8.07813,-5.48437 -13.26563,-5.48437 -5.1875,0 -9.60937,1.82812 -13.26562,5.48437 -2.75,2.75 -4.46875,5.92188 -5.15625,9.51563 z m -3.98438,17.25 c 1.03125,0 1.90625,0.375 2.625,1.125 0.75,0.71875 1.125,1.59375 1.125,2.625 0,1.03125 -0.35937,1.92187 -1.07812,2.67187 -4.84375,4.21875 -10.54688,6.32813 -17.10938,6.32813 -7.25,0 -13.4375,-2.5625 -18.5625,-7.6875 -5.125,-5.125 -7.6875,-11.3125 -7.6875,-18.5625 0,-7.25 2.5625,-13.4375 7.6875,-18.5625 5.125,-5.125 11.3125,-7.6875 18.5625,-7.6875 7.25,0 13.4375,2.5625 18.5625,7.6875 5.125,5.125 7.6875,11.3125 7.6875,18.5625 0,1.03125 -0.375,1.92187 -1.125,2.67187 -0.71875,0.71875 -1.59375,1.07813 -2.625,1.07813 h -40.92187 c 0.6875,3.59375 2.40625,6.76562 5.15625,9.51562 3.65625,3.65625 8.07812,5.48438 13.26562,5.48438 4.6875,0 8.71875,-1.48438 12.09375,-4.45313 0.6875,-0.53125 1.46875,-0.79687 2.34375,-0.79687 z m 19.3125,-36 c 0,-1.03125 0.35938,-1.90625 1.07813,-2.625 0.75,-0.75 1.64062,-1.125 2.67187,-1.125 1.03125,0 1.90625,0.375 2.625,1.125 0.75,0.71875 1.125,1.59375 1.125,2.625 v 3.04687 c 4.6875,-4.53125 10.3125,-6.79687 16.875,-6.79687 6.71875,0 12.45313,2.39062 17.20313,7.17187 4.78125,4.75 7.17187,10.48438 7.17187,17.20313 v 24.375 c 0,1.03125 -0.375,1.92187 -1.125,2.67187 -0.71875,0.71875 -1.59375,1.07813 -2.625,1.07813 -1.03125,0 -1.92187,-0.35938 -2.67187,-1.07813 -0.71875,-0.75 -1.07813,-1.64062 -1.07813,-2.67187 v -24.375 c 0,-4.65625 -1.65625,-8.625 -4.96875,-11.90625 -3.28125,-3.3125 -7.25,-4.96875 -11.90625,-4.96875 -4.65625,0 -8.64062,1.65625 -11.95312,4.96875 -3.28125,3.28125 -4.92188,7.25 -4.92188,11.90625 v 24.375 c 0,1.03125 -0.375,1.92187 -1.125,2.67187 -0.71875,0.71875 -1.59375,1.07813 -2.625,1.07813 -1.03125,0 -1.92187,-0.35938 -2.67187,-1.07813 -0.71875,-0.75 -1.07813,-1.64062 -1.07813,-2.67187 z m 57,38.48437 c -0.5,-0.65625 -0.75,-1.40625 -0.75,-2.25 0,-1.03125 0.35938,-1.90625 1.07813,-2.625 0.75,-0.75 1.64062,-1.125 2.67187,-1.125 1.34375,0 2.40625,0.57813 3.1875,1.73438 0.375,0.59375 0.8125,1.15625 1.3125,1.6875 2.65625,3.1875 6.0625,4.95312 10.21875,5.29687 4.125,0.3125 7.76563,-0.85937 10.92188,-3.51562 3.15625,-2.6875 4.90625,-6.09375 5.25,-10.21875 0.34375,-4.15625 -0.82813,-7.79688 -3.51563,-10.92188 -2.65625,-3.15625 -6.0625,-4.90625 -10.21875,-5.25 -5.15625,-0.4375 -9.40625,-2.625 -12.75,-6.5625 -3.34375,-3.9375 -4.8125,-8.5 -4.40625,-13.6875 0.4375,-5.15625 2.625,-9.40625 6.5625,-12.75 3.53125,-3.03125 7.59375,-4.54687 12.1875,-4.54687 5.4375,0 10.1875,2.23437 14.25,6.70312 0.6875,0.8125 1.29688,1.65625 1.82813,2.53125 0.375,0.59375 0.5625,1.26563 0.5625,2.01563 0,1.03125 -0.375,1.92187 -1.125,2.67187 -0.71875,0.71875 -1.59375,1.07813 -2.625,1.07813 -1.1875,0 -2.0625,-0.375 -2.625,-1.125 -0.5625,-0.75 -1.14063,-1.51563 -1.73438,-2.29688 -2.03125,-2.375 -4.57812,-3.6875 -7.64062,-3.9375 -3.09375,-0.25 -5.82813,0.64063 -8.20313,2.67188 -2.375,2 -3.6875,4.53125 -3.9375,7.59375 -0.25,3.09375 0.625,5.82812 2.625,8.20312 2.03125,2.375 4.57813,3.6875 7.64063,3.9375 6.21875,0.53125 11.34375,3.15625 15.375,7.875 3.53125,4.1875 5.29687,8.9375 5.29687,14.25 0,0.71875 -0.0312,1.4375 -0.0937,2.15625 -0.5,6.1875 -3.10937,11.28125 -7.82812,15.28125 -4.21875,3.59375 -9.01563,5.39063 -14.39063,5.39063 -6.71875,0 -12.5,-2.65625 -17.34375,-7.96875 -0.65625,-0.71875 -1.25,-1.48438 -1.78125,-2.29688 z m 48.9375,-60.98437 c 0,-1.03125 0.35938,-1.90625 1.07813,-2.625 0.75,-0.75 1.64062,-1.125 2.67187,-1.125 1.03125,0 1.90625,0.375 2.625,1.125 0.75,0.71875 1.125,1.59375 1.125,2.625 v 25.54687 c 4.6875,-4.53125 10.3125,-6.79687 16.875,-6.79687 6.71875,0 12.45313,2.39062 17.20313,7.17187 4.78125,4.75 7.17187,10.48438 7.17187,17.20313 v 24.375 c 0,1.03125 -0.375,1.92187 -1.125,2.67187 -0.71875,0.71875 -1.59375,1.07813 -2.625,1.07813 -1.03125,0 -1.92187,-0.35938 -2.67187,-1.07813 -0.71875,-0.75 -1.07813,-1.64062 -1.07813,-2.67187 v -24.375 c 0,-4.65625 -1.65625,-8.625 -4.96875,-11.90625 -3.28125,-3.3125 -7.25,-4.96875 -11.90625,-4.96875 -4.65625,0 -8.64062,1.65625 -11.95312,4.96875 -3.28125,3.28125 -4.92188,7.25 -4.92188,11.90625 v 24.375 c 0,1.03125 -0.375,1.92187 -1.125,2.67187 -0.71875,0.71875 -1.59375,1.07813 -2.625,1.07813 -1.03125,0 -1.92187,-0.35938 -2.67187,-1.07813 -0.71875,-0.75 -1.07813,-1.64062 -1.07813,-2.67187 z m 108.75,45 c 0,7.25 -2.5625,13.4375 -7.6875,18.5625 -5.125,5.125 -11.3125,7.6875 -18.5625,7.6875 -7.25,0 -13.4375,-2.5625 -18.5625,-7.6875 -5.125,-5.125 -7.6875,-11.3125 -7.6875,-18.5625 0,-7.25 2.5625,-13.4375 7.6875,-18.5625 5.125,-5.125 11.3125,-7.6875 18.5625,-7.6875 7.25,0 13.4375,2.5625 18.5625,7.6875 5.125,5.125 7.6875,11.3125 7.6875,18.5625 z m -26.25,-18.75 c -5.1875,0 -9.60937,1.82812 -13.26562,5.48437 -3.65625,3.65625 -5.48438,8.07813 -5.48438,13.26563 0,5.1875 1.82813,9.60937 5.48438,13.26562 3.65625,3.65625 8.07812,5.48438 13.26562,5.48438 5.1875,0 9.60938,-1.82813 13.26563,-5.48438 3.65625,-3.65625 5.48437,-8.07812 5.48437,-13.26562 0,-5.1875 -1.82812,-9.60938 -5.48437,-13.26563 -3.65625,-3.65625 -8.07813,-5.48437 -13.26563,-5.48437 z m 64.875,-6.42188 c 0.71875,-0.71875 1.59375,-1.07812 2.625,-1.07812 1.03125,0 1.92188,0.35937 2.67188,1.07812 0.46875,0.5 0.79687,1.07813 0.98437,1.73438 l 11.34375,34.07812 11.57813,-34.73437 c 0.1875,-0.375 0.45312,-0.73438 0.79687,-1.07813 0.71875,-0.71875 1.59375,-1.07812 2.625,-1.07812 1.03125,0 1.90625,0.375 2.625,1.125 0.75,0.71875 1.125,1.59375 1.125,2.625 0,0.5 -0.0937,0.98437 -0.28125,1.45312 l -14.95312,44.90625 c -0.1875,0.46875 -0.46875,0.92188 -0.84375,1.35938 -0.75,0.6875 -1.64063,1.03125 -2.67188,1.03125 -1.03125,0 -1.90625,-0.34375 -2.625,-1.03125 -0.40625,-0.4375 -0.70312,-0.89063 -0.89062,-1.35938 l -11.48438,-34.5 -11.48437,34.5 c -0.1875,0.46875 -0.46875,0.92188 -0.84375,1.35938 -0.75,0.6875 -1.64063,1.03125 -2.67188,1.03125 -1.03125,0 -1.90625,-0.34375 -2.625,-1.03125 -0.40625,-0.4375 -0.70312,-0.89063 -0.89062,-1.35938 l -14.95313,-44.90625 c -0.1875,-0.46875 -0.28125,-0.95312 -0.28125,-1.45312 0,-1.03125 0.35938,-1.90625 1.07813,-2.625 0.75,-0.75 1.64062,-1.125 2.67187,-1.125 1.03125,0 1.92188,0.35937 2.67188,1.07812 0.3125,0.34375 0.5625,0.70313 0.75,1.07813 l 11.57812,34.73437 11.34375,-34.07812 c 0.21875,-0.65625 0.5625,-1.23438 1.03125,-1.73438 z"
       id="text7"
       style="font-size:96px;font-family:Comfortaa;-inkscape-font-specification:Comfortaa;white-space:pre;fill:#1a1a1a"
       transform="matrix(0.43291784,0,0,0.43291784,-3.1484526,-41.206112)"
       aria-label="OpenShow"
       sodipodi:nodetypes="ssscssscsssscssscssssssssssscssssssssssscscsssccscscssssssssscsscsssscscscsssscsscsssssscsssssscccccccsccsccsssscccccccsccscssssscscscsssscsscsssssscsssssssssssssssssssscsccccsscscccscccccscccsssccccc" />
    <g
       id="g18"
       transform="translate(-0.91557447)">
      <path
         style="fill:#1a1a1a;stroke:#1a1a1a;stroke-width:2.619;stroke-linecap:round;stroke-dasharray:none;stroke-opacity:1"
         d="m 76.79895,39.243968 h 25.75413"
         id="path15" />
      <path
         style="fill:#1a1a1a;stroke:#1a1a1a;stroke-width:2.25803;stroke-linecap:round;stroke-dasharray:none;stroke-opacity:1"
         d="M 81.628377,45.196134 H 100.77249"
         id="path15-4" />
      <path
         style="fill:#1a1a1a;stroke:#1a1a1a;stroke-width:2.619;stroke-linecap:round;stroke-dasharray:none;stroke-opacity:1"
         d="M 76.798952,51.148301 H 102.55308"
         id="path15-5" />
      <path
         style="fill:#1a1a1a;stroke:#1a1a1a;stroke-width:2.619;stroke-linecap:round;stroke-dasharray:none;stroke-opacity:1"
         d="M 76.798952,63.052633 H 102.55308"
         id="path15-55" />
      <path
         style="fill:#1a1a1a;stroke:#1a1a1a;stroke-width:2.619;stroke-linecap:round;stroke-dasharray:none;stroke-opacity:1"
         d="m 76.79895,39.243968 c -1.696245,3.561012 -1.696244,7.529123 3e-6,11.904333"
         id="path17"
         sodipodi:nodetypes="cc" />
      <path
         style="fill:#1a1a1a;stroke:#1a1a1a;stroke-width:2.619;stroke-linecap:round;stroke-dasharray:none;stroke-opacity:1"
         d="m 102.55308,51.148301 c 1.56055,4.23951 1.56055,8.207621 0,11.904332"
         id="path18"
         sodipodi:nodetypes="cc" />
      <path
         style="fill:#1a1a1a;stroke:#1a1a1a;stroke-width:2.25803;stroke-linecap:round;stroke-dasharray:none;stroke-opacity:1"
         d="M 78.205968,57.100467 H 97.350093"
         id="path15-4-5" />
    </g>
  </g>
</svg>
